<?xml version="1.0" standalone="no"?>
<!DOCTYPE svg PUBLIC "-//W3C//DTD SVG 20010904//EN"
 "http://www.w3.org/TR/2001/REC-SVG-20010904/DTD/svg10.dtd">
<svg version="1.0" xmlns="http://www.w3.org/2000/svg"
 width="992.000000pt" height="992.000000pt" viewBox="0 0 992.000000 992.000000"
 preserveAspectRatio="xMidYMid meet">
<metadata>
Created by potrace 1.11, written by Peter Selinger 2001-2013
</metadata>
<g transform="translate(0.000000,992.000000) scale(0.100000,-0.100000)"
fill="#000000" stroke="none">
<path d="M1377 6144 c-1 -1 -28 -4 -61 -8 -93 -10 -196 -41 -196 -59 0 -5 -4
-5 -10 -2 -11 7 -61 -26 -111 -75 -93 -91 -133 -228 -142 -485 l-2 -60 -122
-3 -123 -3 0 -239 c0 -185 3 -240 13 -241 6 -1 62 -2 122 -3 l110 -1 0 -620 0
-620 331 0 331 0 0 620 0 620 129 2 c71 0 134 2 140 2 7 1 20 18 30 38 15 32
17 68 18 240 l1 203 -160 0 -161 0 7 83 c7 97 26 138 76 170 37 24 78 26 272
14 38 -2 41 3 55 108 3 22 16 95 29 163 l24 122 -44 2 c-58 2 -94 6 -118 11
-47 11 -428 30 -438 21z"/>
<path d="M2159 6098 c-1 -67 0 -550 0 -561 1 -4 31 -22 69 -39 37 -18 69 -36
70 -40 2 -4 8 -8 14 -8 6 0 140 -65 298 -144 l287 -145 0 495 0 494 -369 0
-368 0 -1 -52z"/>
<path d="M7637 6096 c-2 -6 -3 -542 -3 -1191 l1 -1180 335 0 335 0 2 224 1
225 122 118 c68 65 126 118 130 118 4 0 28 -45 54 -100 26 -55 52 -100 57
-100 6 0 7 -5 4 -10 -4 -6 -2 -16 3 -23 5 -7 49 -91 97 -187 49 -96 93 -178
99 -182 6 -4 7 -8 3 -8 -5 0 1 -17 13 -38 l21 -37 370 0 c203 0 369 2 369 5 0
3 -4 10 -9 16 -9 8 -18 24 -79 134 -14 25 -33 56 -42 70 -16 23 -29 46 -96
168 -15 26 -32 54 -39 62 -7 8 -14 20 -16 25 -4 11 -205 355 -247 423 -12 20
-25 44 -29 52 -4 8 -26 48 -50 88 -24 40 -43 74 -43 76 0 2 55 58 123 124 67
66 205 201 307 301 l185 181 -405 0 -405 0 -30 -36 c-17 -20 -39 -46 -50 -58
-11 -12 -42 -48 -70 -81 -27 -32 -55 -63 -60 -69 -6 -6 -64 -74 -130 -151 -66
-77 -128 -149 -137 -159 -21 -23 -19 -99 -19 675 l-1 535 -333 1 c-233 0 -335
-3 -338 -11z"/>
<path d="M4080 5470 c-58 -10 -133 -27 -168 -38 -79 -26 -212 -91 -212 -103 0
-5 -5 -9 -11 -9 -14 0 -89 -60 -136 -107 -130 -132 -223 -323 -240 -498 -39
-375 81 -659 362 -859 49 -35 164 -96 180 -96 2 0 16 -5 32 -11 15 -6 29 -10
30 -10 2 0 17 -5 35 -10 129 -38 313 -52 488 -36 461 43 786 344 836 772 51
438 -163 811 -545 949 -73 26 -168 49 -251 61 -99 15 -295 12 -400 -5z m355
-471 c119 -62 180 -193 184 -401 5 -232 -60 -377 -198 -440 -65 -29 -170 -33
-237 -7 -55 21 -154 107 -154 133 0 9 -4 16 -9 16 -16 0 -53 150 -55 230 -7
218 42 365 147 442 52 38 79 48 142 57 62 8 126 -3 180 -30z"/>
<path d="M6257 5484 c-2 -2 -33 -6 -70 -8 -132 -9 -258 -44 -362 -101 -178
-98 -266 -250 -260 -445 5 -134 46 -222 153 -325 91 -89 206 -133 497 -190 72
-13 168 -32 215 -41 47 -9 109 -23 139 -30 118 -30 169 -99 135 -183 -16 -37
-31 -52 -87 -82 -80 -42 -236 -43 -326 -2 -48 22 -106 86 -128 141 l-18 43
-80 -6 c-44 -4 -96 -8 -115 -10 -19 -2 -69 -6 -110 -10 -41 -3 -89 -8 -105
-10 -26 -4 -112 -11 -215 -19 -21 -2 -25 -7 -22 -31 5 -41 49 -141 85 -195 89
-130 243 -226 410 -256 17 -2 33 -6 36 -8 3 -2 33 -7 66 -11 33 -3 76 -9 95
-12 47 -6 385 -6 435 1 153 21 149 20 236 46 41 12 104 38 141 57 65 35 188
128 188 143 0 4 11 20 25 36 99 115 131 342 69 484 -35 80 -34 78 -114 160
-46 47 -87 76 -140 102 -72 35 -221 80 -305 92 -22 4 -69 11 -105 16 -124 18
-135 20 -180 25 -45 5 -117 18 -175 33 -48 11 -93 43 -106 74 -28 68 21 146
106 167 46 12 201 3 237 -13 54 -23 105 -72 119 -113 l11 -35 77 6 c42 3 90 8
106 10 17 2 64 7 106 10 42 4 85 8 95 10 11 2 60 7 109 12 50 4 93 8 98 10 4
1 14 2 22 3 14 1 14 5 0 39 -28 66 -92 166 -137 212 -115 119 -232 171 -443
196 -61 7 -402 13 -408 8z"/>
<path d="M2159 4772 c-5 -46 0 -1034 5 -1040 4 -4 169 -7 367 -7 l359 0 1 25
c5 139 -1 665 -8 667 -7 3 -404 202 -503 253 -134 69 -220 109 -221 102z"/>
</g>
</svg>
